<svg xmlns="http://www.w3.org/2000/svg" viewBox="0 0 316 316">
  <defs><style>.cls-1{fill:#fff;}</style></defs>
  <g>
    <g>
      <circle cx="158" cy="158" r="158" />
      <path
        class="cls-1"
        d="M249.7,217.9l.6-3.8a27,27,0,0,0-3.7,1.5c-4.8,2.9-4.8,3-7-2.2-17.3,1.5-34.8,2.9-52.1,4.6a526.3,526.3,0,0,1-65.8,3,179.2,179.2,0,0,1-22-1.5c-3.6-.5-7.1-2.9-10.5-4.6s-3.7-2.5-5.6-3.7c-3.7-2.2-6.4-5.1-7.1-9.6-.4-2.5-1.8-2.9-4.2-2.9-7.1.1-14.2-.1-21.3-.3a13.7,13.7,0,0,1-4-.7c-2.8-.9-3.3-3.6-.9-5a20.1,20.1,0,0,1,8.3-2.8c6.2-.4,12.5-.1,19.2-.1l-.4-6.1-19.7-1.5a15.7,15.7,0,0,1-2.2-.2c-2.3-.5-5.7,0-6-3.3s3.4-4.5,5.8-4.7c5.6-.5,11.2-.1,16.8.1a43.1,43.1,0,0,1,4.4.5c1.7-5,1.4-5.8-3.5-6.7-8.2-1.6-16.4-3-24.7-4.4-2.3-.4-5.7-.2-5.4-3.2s2.9-3.8,4.9-5.3,2.7-.5,4-.4c7.7.9,15.4,1.7,23,2.9,2.4.4,3.4.1,4.5-2.3,1.7-4.1,4.1-7.9,5.7-10.9-.9-3.2-1.6-5.7-2.2-8.2-1.7-7.8-3.3-15.7-5-23.5-.7-3-1.5-6.1-2.1-9.1s.9-6.3,4.7-9,4.6.5,6.4,2.1a65.1,65.1,0,0,1,4.8,5.2l3.1-3.4L80,85.5l.6-1.3a31.6,31.6,0,0,1,5.5-.6c7.3.4,13.1,4.5,19,8.2s12.1,7.5,17.9,11.6a26.8,26.8,0,0,1,7.5,7.7c3,5.1-.1,8-5.2,9.4a2.5,2.5,0,0,1-2.2-.8c-1.1-2.7-3-2.1-4.5-.9s-3.3.8-4.2-1.2c-2.7-5.6-7.6-8.7-11.9-11.4-3.1,3.1-6,5.9-8.7,8.8a3.1,3.1,0,0,0-.5,2.4c.9,4.4,1.9,8.7,3.1,14,23.8-9.6,48.7-10.4,72.4-9.7,2.3-5.5,3.9-10.3,6.2-14.7a184.1,184.1,0,0,1,10.9-17.8c2.7-3.8,6.5-6,11.6-4.6,1.8.5,3.4,0,4.1-2.6s3.8-5,7.7-4.4,5.4.4,8,1a5.1,5.1,0,0,1,2.8,2.5c2.5,4.9,4.5,10,7.3,14.7,5.3,8.9,6.9,18.6,6.8,28.8,0,3.5-2.1,5.4-5.3,6.4s-4.7,1.2-5.6-2.2l-2.1.9c-3,1.8-4.3,1-5-2.3s-2.6-9.3-4-14c-.6-2.1-1.9-2.3-4-2.1a122.4,122.4,0,0,1-14.4.6c-3.7-.1-9.3,4.8-8.9,8.4a3,3,0,0,0,2.1,1.9c17.2,1.3,30.6,11.6,45,19.4a28.6,28.6,0,0,1,3.9,3.1c6.5-7.5,14.5-9.2,23.6-6.6,1,.3,2.6,1.5,2.5,2a6.1,6.1,0,0,1-2.2,3.6c-1.5,1-3.5,1.3-5.2,2-4.1,1.6-8.3,3.2-12.3,5.1-.7.4-1.4,2.3-1.1,3.2s1.6,3.3,3.9,2.1a29.8,29.8,0,0,1,17.7-3.3,7.2,7.2,0,0,1,2.6.3,38.9,38.9,0,0,1,3.9,2.8,22.4,22.4,0,0,1-3.6,3.2c-3.6,2-7.4,3.6-10.8,5.7s-4.3,3-2,6.6c4.8-.9,9.1-2,13.5-2.5,1.4-.2,3,1.2,4.5,1.9-.9,1.4-1.5,3.1-2.7,4.1s-5.3,3.3-7.7,5.3a5.9,5.9,0,0,0-2,4.1q.2,13.3,1,26.5C259.8,215.1,253.9,219.4,249.7,217.9Z"
      />
      <path
        class="cls-1"
        d="M139.3,135.1c0,3.8-2.5,4.9-5.4,5.9s-7.4,2-9.6,4.4c-5.4,5.8-9.9,12.5-14.7,18.8a8.6,8.6,0,0,0-1.9,7.6,49.7,49.7,0,0,1,.7,8.2c.5,9.3,1,18.7,1.5,28,.1,2.1.8,3.8,3.6,3.7,8.5-.2,17,.3,25.5-.3,23-1.5,46-3.4,69.1-5.1l30.5-2.2c1.9-.1,2.9-.6,3.1-2.8a41.2,41.2,0,0,0-8-28.4l-5,.6c0-1.8.1-3.7.1-5.5s.2-2.4-.4-3.3c-1.5-2.6-3.3-5-5-7.5-.3-.5-.8-1.2-1.2-1.2-5.7.2-3.8-2.9-2.2-6-5.4-3.2-10.8-6-15.8-9.5-13.2-9.2-28-10.6-43.3-9.8a10.7,10.7,0,0,0-2.4.8,56.2,56.2,0,0,1-7.8,2.4C147,134.7,143.4,134.8,139.3,135.1Z"
      />
      <path class="cls-1" d="M204.6,92.7l-1.2-.4-4.5,7.7H207Z" />
      <path d="M139.3,135.1c4.1-.3,7.7-.4,11.2-1a56.2,56.2,0,0,0,7.8-2.4,10.7,10.7,0,0,1,2.4-.8c15.4-.9,30.2.6,43.3,9.8,5,3.5,10.4,6.3,15.8,9.5-1.6,3.2-3.5,6.3,2.2,6,.4,0,.9.7,1.2,1.2,1.7,2.5,3.5,4.9,5,7.5.5.9.3,2.2.4,3.3s-.1,3.7-.1,5.5l5-.6a41.2,41.2,0,0,1,8,28.4c-.2,2.2-1.2,2.6-3.1,2.8l-30.5,2.2c-23,1.7-46,3.6-69.1,5.1-8.5.5-17,.1-25.5.3-2.8.1-3.5-1.6-3.6-3.7-.5-9.3-1-18.7-1.5-28a49.7,49.7,0,0,0-.7-8.2,8.6,8.6,0,0,1,1.9-7.6c4.9-6.3,9.4-13,14.7-18.8,2.2-2.4,6.3-3.3,9.6-4.4S139.3,138.9,139.3,135.1Z" />
      <path d="M204.6,92.7,207,100h-8.1l4.5-7.7Z" />
    </g>
  </g>
</svg>
